<?xml version="1.0" standalone="no"?>
<!DOCTYPE svg PUBLIC "-//W3C//DTD SVG 1.0//EN" "http://www.w3.org/TR/2001/REC-SVG-20010904/DTD/svg10.dtd">
<svg xmlns="http://www.w3.org/2000/svg" xmlns:xlink="http://www.w3.org/1999/xlink" id="body_1" width="30" height="30">

<g transform="matrix(0.1595745 0 0 0.1595745 0 0)">
	<g transform="matrix(1.333333 0 0 1.333333 0 0)">
	</g>
    <path transform="matrix(1.333333 0 0 1.333333 0 0)"  d="M114.2578 13.18359L114.2578 127.4414C 114.2578 134.7227 108.3555 140.625 101.0742 140.625L101.0742 140.625L39.55078 140.625C 32.26953 140.625 26.36719 134.7227 26.36719 127.4414L26.36719 127.4414L26.36719 13.18359C 26.36719 5.902344 32.26953 0 39.55078 0L39.55078 0L101.0742 0C 108.3555 0 114.2578 5.902344 114.2578 13.18359zM140.625 29.11328L140.625 32.41016C 140.625 33.32031 139.8906 34.05859 138.9766 34.05859L138.9766 34.05859L134.0313 34.05859L134.0313 35.70703C 134.0313 36.61719 133.2969 37.35156 132.3867 37.35156L132.3867 37.35156L120.8516 37.35156L120.8516 24.17188L132.3867 24.17188C 133.2969 24.17188 134.0313 24.90625 134.0313 25.81641L134.0313 25.81641L134.0313 27.46484L138.9766 27.46484C 139.8906 27.46484 140.625 28.20313 140.625 29.11328zM140.625 55.48047L140.625 58.77734C 140.625 59.6875 139.8906 60.42578 138.9766 60.42578L138.9766 60.42578L134.0313 60.42578L134.0313 62.07422C 134.0313 62.98438 133.2969 63.71875 132.3867 63.71875L132.3867 63.71875L120.8516 63.71875L120.8516 50.53906L132.3867 50.53906C 133.2969 50.53906 134.0313 51.27344 134.0313 52.18359L134.0313 52.18359L134.0313 53.83203L138.9766 53.83203C 139.8906 53.83203 140.625 54.57031 140.625 55.48047zM140.625 81.84766L140.625 85.14453C 140.625 86.05469 139.8906 86.79297 138.9766 86.79297L138.9766 86.79297L134.0313 86.79297L134.0313 88.44141C 134.0313 89.35156 133.2969 90.08594 132.3867 90.08594L132.3867 90.08594L120.8516 90.08594L120.8516 76.90625L132.3867 76.90625C 133.2969 76.90625 134.0313 77.64063 134.0313 78.55078L134.0313 78.55078L134.0313 80.19922L138.9766 80.19922C 139.8906 80.19922 140.625 80.9375 140.625 81.84766zM140.625 108.2148L140.625 111.5117C 140.625 112.4219 139.8906 113.1602 138.9766 113.1602L138.9766 113.1602L134.0313 113.1602L134.0313 114.8086C 134.0313 115.7188 133.2969 116.4531 132.3867 116.4531L132.3867 116.4531L120.8516 116.4531L120.8516 103.2734L132.3867 103.2734C 133.2969 103.2734 134.0313 104.0078 134.0313 104.918L134.0313 104.918L134.0313 106.5664L138.9766 106.5664C 139.8906 106.5664 140.625 107.3047 140.625 108.2148zM8.238281 103.2734L19.77344 103.2734L19.77344 116.4531L8.238281 116.4531C 7.328125 116.4531 6.59375 115.7188 6.59375 114.8086L6.59375 114.8086L6.59375 113.1602L1.648438 113.1602C 0.734375 113.1602 0 112.4219 0 111.5117L0 111.5117L0 108.2148C 0 107.3047 0.734375 106.5664 1.648438 106.5664L1.648438 106.5664L6.59375 106.5664L6.59375 104.918C 6.59375 104.0078 7.328125 103.2734 8.238281 103.2734zM8.238281 76.90625L19.77344 76.90625L19.77344 90.08594L8.238281 90.08594C 7.328125 90.08594 6.59375 89.35156 6.59375 88.44141L6.59375 88.44141L6.59375 86.79297L1.648438 86.79297C 0.734375 86.79297 0 86.05469 0 85.14453L0 85.14453L0 81.84766C 0 80.9375 0.734375 80.19922 1.648438 80.19922L1.648438 80.19922L6.59375 80.19922L6.59375 78.55078C 6.59375 77.64063 7.328125 76.90625 8.238281 76.90625zM8.238281 50.53906L19.77344 50.53906L19.77344 63.71875L8.238281 63.71875C 7.328125 63.71875 6.59375 62.98438 6.59375 62.07422L6.59375 62.07422L6.59375 60.42578L1.648438 60.42578C 0.734375 60.42578 0 59.6875 0 58.77734L0 58.77734L0 55.48047C 0 54.57031 0.734375 53.83203 1.648438 53.83203L1.648438 53.83203L6.59375 53.83203L6.59375 52.18359C 6.59375 51.27344 7.328125 50.53906 8.238281 50.53906zM8.238281 24.17188L19.77344 24.17188L19.77344 37.35156L8.238281 37.35156C 7.328125 37.35156 6.59375 36.61719 6.59375 35.70703L6.59375 35.70703L6.59375 34.05859L1.648438 34.05859C 0.734375 34.05859 0 33.32031 0 32.41016L0 32.41016L0 29.11328C 0 28.20313 0.734375 27.46484 1.648438 27.46484L1.648438 27.46484L6.59375 27.46484L6.59375 25.81641C 6.59375 24.90625 7.328125 24.17188 8.238281 24.17188z" stroke="none" fill="#000000" fill-rule="nonzero" />
</g>
</svg>