<?xml version="1.0" standalone="no"?>
<!DOCTYPE svg PUBLIC "-//W3C//DTD SVG 1.0//EN" "http://www.w3.org/TR/2001/REC-SVG-20010904/DTD/svg10.dtd">
<svg xmlns="http://www.w3.org/2000/svg" xmlns:xlink="http://www.w3.org/1999/xlink" id="body_1" width="30" height="30">

<g transform="matrix(0.1595745 0 0 0.1595745 0 0)">
	<g transform="matrix(1.333333 0 0 1.333333 0 0)">
	</g>
    <path transform="matrix(1.333333 0 0 1.333333 0 0)"  d="M38.34766 9.75C 37.72656 9.128906 36.88281 8.78125 36.00781 8.78125C 35.13281 8.78125 34.29688 9.128906 33.67578 9.75L33.67578 9.75L16.1875 27.14063L9.949219 21.0625C 9.332031 20.44141 8.492188 20.09375 7.617188 20.09375C 6.742188 20.09375 5.898438 20.44141 5.28125 21.0625L5.28125 21.0625L0.96875 25.38281C 0.347656 26 0 26.83984 0 27.71484C 0 28.58984 0.347656 29.43359 0.96875 30.05078L0.96875 30.05078L14.03906 43.07031C 15.39453 44.35547 17.52344 44.35547 18.87891 43.07031L18.87891 43.07031L23.16016 38.77734L42.98828 18.95313C 44.27344 17.66406 44.28516 15.58203 43.01563 14.28125L43.01563 14.28125L38.34766 9.75zM38.34766 53.47266C 37.72656 52.85156 36.88281 52.50391 36.00781 52.50391C 35.13281 52.50391 34.29688 52.85156 33.67578 53.47266L33.67578 53.47266L16.1875 70.97656L9.949219 64.90234C 9.332031 64.28516 8.492188 63.9375 7.617188 63.9375C 6.742188 63.9375 5.898438 64.28516 5.28125 64.90234L5.28125 64.90234L0.96875 69.21484C 0.347656 69.83203 0 70.67188 0 71.55078C 0 72.42578 0.347656 73.26563 0.96875 73.88281L0.96875 73.88281L14.00781 86.92969C 15.36328 88.21484 17.48828 88.21484 18.83984 86.92969L18.83984 86.92969L23.15234 82.62109L42.98438 62.78125C 44.26563 61.50391 44.27344 59.43359 43.00781 58.14453zM17.57813 101.0742C 10.30078 101.0742 4.234375 106.9766 4.234375 114.2578C 4.234375 121.5391 10.30859 127.4414 17.57813 127.4414C 24.85938 127.4414 30.76172 121.5391 30.76172 114.2578C 30.76172 106.9766 24.85938 101.0742 17.57813 101.0742zM136.2305 105.4688L57.12891 105.4688C 54.69922 105.4688 52.73438 107.4336 52.73438 109.8633L52.73438 109.8633L52.73438 118.6523C 52.73438 121.082 54.69922 123.0469 57.12891 123.0469L57.12891 123.0469L136.2305 123.0469C 138.6602 123.0469 140.625 121.082 140.625 118.6523L140.625 118.6523L140.625 109.8633C 140.625 107.4336 138.6602 105.4688 136.2305 105.4688zM136.2305 17.57813L57.12891 17.57813C 54.69922 17.57813 52.73438 19.54297 52.73438 21.97266L52.73438 21.97266L52.73438 30.76172C 52.73438 33.19141 54.69922 35.15625 57.12891 35.15625L57.12891 35.15625L136.2305 35.15625C 138.6602 35.15625 140.625 33.19141 140.625 30.76172L140.625 30.76172L140.625 21.97266C 140.625 19.54297 138.6602 17.57813 136.2305 17.57813zM136.2305 61.52344L57.12891 61.52344C 54.69922 61.52344 52.73438 63.48828 52.73438 65.91797L52.73438 65.91797L52.73438 74.70703C 52.73438 77.13672 54.69922 79.10156 57.12891 79.10156L57.12891 79.10156L136.2305 79.10156C 138.6602 79.10156 140.625 77.13672 140.625 74.70703L140.625 74.70703L140.625 65.91797C 140.625 63.48828 138.6602 61.52344 136.2305 61.52344z" stroke="none" fill="#000000" fill-rule="nonzero" />
</g>
</svg>