<?xml version="1.0" standalone="no"?>
<!DOCTYPE svg PUBLIC "-//W3C//DTD SVG 1.0//EN" "http://www.w3.org/TR/2001/REC-SVG-20010904/DTD/svg10.dtd">
<svg xmlns="http://www.w3.org/2000/svg" xmlns:xlink="http://www.w3.org/1999/xlink" id="body_1" width="30" height="30">

<g transform="matrix(0.1595745 0 0 0.1595745 0 0)">
	<g transform="matrix(1.333333 0 0 1.333333 0 0)">
	</g>
    <path transform="matrix(1.333333 0 0 1.333333 0 0)"  d="M105.4688 105.4688C 105.4688 115.1758 89.73047 123.0469 70.3125 123.0469C 50.89453 123.0469 35.15625 115.1758 35.15625 105.4688C 35.15625 98.96484 42.22656 93.28906 52.73438 90.25L52.73438 90.25L52.73438 79.10156C 52.73438 74.25 60.60547 70.3125 70.3125 70.3125C 80.01953 70.3125 87.89063 74.25 87.89063 79.10156L87.89063 79.10156L87.89063 90.25C 98.39844 93.28906 105.4688 98.96484 105.4688 105.4688zM123.0469 82.21875C 133.9844 88.41406 140.625 96.55469 140.625 105.4688C 140.625 124.8867 109.1484 140.625 70.3125 140.625C 70.14844 140.625 69.98047 140.625 69.8125 140.625C 31.19531 140.4883 -0.199219 124.5977 0 105.2852C 0.0898438 96.44141 6.714844 88.375 17.57813 82.21875L17.57813 82.21875L17.57813 26.36719C 17.57813 11.80469 41.1875 0 70.3125 0C 99.4375 0 123.0469 11.80469 123.0469 26.36719zM114.2578 105.4688C 114.2578 96.03906 103.6172 91.13672 96.67969 87.20313L96.67969 87.20313L96.67969 26.36719C 96.67969 19.09766 84.85156 13.18359 70.3125 13.18359C 55.77344 13.18359 43.94531 19.09766 43.94531 26.36719L43.94531 26.36719L43.94531 87.20313C 36.94922 91.16406 26.46094 96.01953 26.36719 105.3516C 26.24609 117.4023 45.90625 127.3555 69.99609 127.4414L69.99609 127.4414L70.3125 127.4414C 94.54297 127.4414 114.2578 117.582 114.2578 105.4688z" stroke="none" fill="#000000" fill-rule="nonzero" />
</g>
</svg>