<?xml version="1.0" encoding="UTF-8"?>
<svg xmlns="http://www.w3.org/2000/svg" xmlns:xlink="http://www.w3.org/1999/xlink" width="141pt" height="141pt" viewBox="0 0 141 141" version="1.1">
<g id="surface1">
<path style=" stroke:none;fill-rule:nonzero;fill:rgb(0%,0%,0%);fill-opacity:1;" d="M 114.257812 13.183594 L 114.257812 127.441406 C 114.257812 134.722656 108.355469 140.625 101.074219 140.625 L 39.550781 140.625 C 32.269531 140.625 26.367188 134.722656 26.367188 127.441406 L 26.367188 13.183594 C 26.367188 5.902344 32.269531 0 39.550781 0 L 101.074219 0 C 108.355469 0 114.257812 5.902344 114.257812 13.183594 Z M 140.625 29.113281 L 140.625 32.410156 C 140.625 33.320312 139.890625 34.058594 138.976562 34.058594 L 134.03125 34.058594 L 134.03125 35.707031 C 134.03125 36.617188 133.296875 37.351562 132.386719 37.351562 L 120.851562 37.351562 L 120.851562 24.171875 L 132.386719 24.171875 C 133.296875 24.171875 134.03125 24.90625 134.03125 25.816406 L 134.03125 27.464844 L 138.976562 27.464844 C 139.890625 27.464844 140.625 28.203125 140.625 29.113281 Z M 140.625 55.480469 L 140.625 58.777344 C 140.625 59.6875 139.890625 60.425781 138.976562 60.425781 L 134.03125 60.425781 L 134.03125 62.074219 C 134.03125 62.984375 133.296875 63.71875 132.386719 63.71875 L 120.851562 63.71875 L 120.851562 50.539062 L 132.386719 50.539062 C 133.296875 50.539062 134.03125 51.273438 134.03125 52.183594 L 134.03125 53.832031 L 138.976562 53.832031 C 139.890625 53.832031 140.625 54.570312 140.625 55.480469 Z M 140.625 81.847656 L 140.625 85.144531 C 140.625 86.054688 139.890625 86.792969 138.976562 86.792969 L 134.03125 86.792969 L 134.03125 88.441406 C 134.03125 89.351562 133.296875 90.085938 132.386719 90.085938 L 120.851562 90.085938 L 120.851562 76.90625 L 132.386719 76.90625 C 133.296875 76.90625 134.03125 77.640625 134.03125 78.550781 L 134.03125 80.199219 L 138.976562 80.199219 C 139.890625 80.199219 140.625 80.9375 140.625 81.847656 Z M 140.625 108.214844 L 140.625 111.511719 C 140.625 112.421875 139.890625 113.160156 138.976562 113.160156 L 134.03125 113.160156 L 134.03125 114.808594 C 134.03125 115.71875 133.296875 116.453125 132.386719 116.453125 L 120.851562 116.453125 L 120.851562 103.273438 L 132.386719 103.273438 C 133.296875 103.273438 134.03125 104.007812 134.03125 104.917969 L 134.03125 106.566406 L 138.976562 106.566406 C 139.890625 106.566406 140.625 107.304688 140.625 108.214844 Z M 8.238281 103.273438 L 19.773438 103.273438 L 19.773438 116.453125 L 8.238281 116.453125 C 7.328125 116.453125 6.59375 115.71875 6.59375 114.808594 L 6.59375 113.160156 L 1.648438 113.160156 C 0.734375 113.160156 0 112.421875 0 111.511719 L 0 108.214844 C 0 107.304688 0.734375 106.566406 1.648438 106.566406 L 6.59375 106.566406 L 6.59375 104.917969 C 6.59375 104.007812 7.328125 103.273438 8.238281 103.273438 Z M 8.238281 76.90625 L 19.773438 76.90625 L 19.773438 90.085938 L 8.238281 90.085938 C 7.328125 90.085938 6.59375 89.351562 6.59375 88.441406 L 6.59375 86.792969 L 1.648438 86.792969 C 0.734375 86.792969 0 86.054688 0 85.144531 L 0 81.847656 C 0 80.9375 0.734375 80.199219 1.648438 80.199219 L 6.59375 80.199219 L 6.59375 78.550781 C 6.59375 77.640625 7.328125 76.90625 8.238281 76.90625 Z M 8.238281 50.539062 L 19.773438 50.539062 L 19.773438 63.71875 L 8.238281 63.71875 C 7.328125 63.71875 6.59375 62.984375 6.59375 62.074219 L 6.59375 60.425781 L 1.648438 60.425781 C 0.734375 60.425781 0 59.6875 0 58.777344 L 0 55.480469 C 0 54.570312 0.734375 53.832031 1.648438 53.832031 L 6.59375 53.832031 L 6.59375 52.183594 C 6.59375 51.273438 7.328125 50.539062 8.238281 50.539062 Z M 8.238281 24.171875 L 19.773438 24.171875 L 19.773438 37.351562 L 8.238281 37.351562 C 7.328125 37.351562 6.59375 36.617188 6.59375 35.707031 L 6.59375 34.058594 L 1.648438 34.058594 C 0.734375 34.058594 0 33.320312 0 32.410156 L 0 29.113281 C 0 28.203125 0.734375 27.464844 1.648438 27.464844 L 6.59375 27.464844 L 6.59375 25.816406 C 6.59375 24.90625 7.328125 24.171875 8.238281 24.171875 Z M 8.238281 24.171875 "/>
</g>
</svg>
