<?xml version="1.0" encoding="UTF-8"?>
<svg xmlns="http://www.w3.org/2000/svg" xmlns:xlink="http://www.w3.org/1999/xlink" width="141pt" height="141pt" viewBox="0 0 141 141" version="1.1">
<g id="surface1">
<path style=" stroke:none;fill-rule:nonzero;fill:rgb(0%,0%,0%);fill-opacity:1;" d="M 38.347656 9.75 C 37.726562 9.128906 36.882812 8.78125 36.007812 8.78125 C 35.132812 8.78125 34.296875 9.128906 33.675781 9.75 L 16.1875 27.140625 L 9.949219 21.0625 C 9.332031 20.441406 8.492188 20.09375 7.617188 20.09375 C 6.742188 20.09375 5.898438 20.441406 5.28125 21.0625 L 0.96875 25.382812 C 0.347656 26 0 26.839844 0 27.714844 C 0 28.589844 0.347656 29.433594 0.96875 30.050781 L 14.039062 43.070312 C 15.394531 44.355469 17.523438 44.355469 18.878906 43.070312 L 23.160156 38.777344 L 42.988281 18.953125 C 44.273438 17.664062 44.285156 15.582031 43.015625 14.28125 Z M 38.347656 53.472656 C 37.726562 52.851562 36.882812 52.503906 36.007812 52.503906 C 35.132812 52.503906 34.296875 52.851562 33.675781 53.472656 L 16.1875 70.976562 L 9.949219 64.902344 C 9.332031 64.285156 8.492188 63.9375 7.617188 63.9375 C 6.742188 63.9375 5.898438 64.285156 5.28125 64.902344 L 0.96875 69.214844 C 0.347656 69.832031 0 70.671875 0 71.550781 C 0 72.425781 0.347656 73.265625 0.96875 73.882812 L 14.007812 86.929688 C 15.363281 88.214844 17.488281 88.214844 18.839844 86.929688 L 23.152344 82.621094 L 42.984375 62.78125 C 44.265625 61.503906 44.273438 59.433594 43.007812 58.144531 Z M 17.578125 101.074219 C 10.300781 101.074219 4.234375 106.976562 4.234375 114.257812 C 4.234375 121.539062 10.308594 127.441406 17.578125 127.441406 C 24.859375 127.441406 30.761719 121.539062 30.761719 114.257812 C 30.761719 106.976562 24.859375 101.074219 17.578125 101.074219 Z M 136.230469 105.46875 L 57.128906 105.46875 C 54.699219 105.46875 52.734375 107.433594 52.734375 109.863281 L 52.734375 118.652344 C 52.734375 121.082031 54.699219 123.046875 57.128906 123.046875 L 136.230469 123.046875 C 138.660156 123.046875 140.625 121.082031 140.625 118.652344 L 140.625 109.863281 C 140.625 107.433594 138.660156 105.46875 136.230469 105.46875 Z M 136.230469 17.578125 L 57.128906 17.578125 C 54.699219 17.578125 52.734375 19.542969 52.734375 21.972656 L 52.734375 30.761719 C 52.734375 33.191406 54.699219 35.15625 57.128906 35.15625 L 136.230469 35.15625 C 138.660156 35.15625 140.625 33.191406 140.625 30.761719 L 140.625 21.972656 C 140.625 19.542969 138.660156 17.578125 136.230469 17.578125 Z M 136.230469 61.523438 L 57.128906 61.523438 C 54.699219 61.523438 52.734375 63.488281 52.734375 65.917969 L 52.734375 74.707031 C 52.734375 77.136719 54.699219 79.101562 57.128906 79.101562 L 136.230469 79.101562 C 138.660156 79.101562 140.625 77.136719 140.625 74.707031 L 140.625 65.917969 C 140.625 63.488281 138.660156 61.523438 136.230469 61.523438 Z M 136.230469 61.523438 "/>
</g>
</svg>
