<?xml version="1.0" encoding="UTF-8"?>
<svg xmlns="http://www.w3.org/2000/svg" xmlns:xlink="http://www.w3.org/1999/xlink" width="141pt" height="141pt" viewBox="0 0 141 141" version="1.1">
<g id="surface1">
<path style=" stroke:none;fill-rule:nonzero;fill:rgb(0%,0%,0%);fill-opacity:1;" d="M 105.46875 105.46875 C 105.46875 115.175781 89.730469 123.046875 70.3125 123.046875 C 50.894531 123.046875 35.15625 115.175781 35.15625 105.46875 C 35.15625 98.964844 42.226562 93.289062 52.734375 90.25 L 52.734375 79.101562 C 52.734375 74.25 60.605469 70.3125 70.3125 70.3125 C 80.019531 70.3125 87.890625 74.25 87.890625 79.101562 L 87.890625 90.25 C 98.398438 93.289062 105.46875 98.964844 105.46875 105.46875 Z M 123.046875 82.21875 C 133.984375 88.414062 140.625 96.554688 140.625 105.46875 C 140.625 124.886719 109.148438 140.625 70.3125 140.625 C 70.148438 140.625 69.980469 140.625 69.8125 140.625 C 31.195312 140.488281 -0.199219 124.597656 0 105.285156 C 0.0898438 96.441406 6.714844 88.375 17.578125 82.21875 L 17.578125 26.367188 C 17.578125 11.804688 41.1875 0 70.3125 0 C 99.4375 0 123.046875 11.804688 123.046875 26.367188 Z M 114.257812 105.46875 C 114.257812 96.039062 103.617188 91.136719 96.679688 87.203125 L 96.679688 26.367188 C 96.679688 19.097656 84.851562 13.183594 70.3125 13.183594 C 55.773438 13.183594 43.945312 19.097656 43.945312 26.367188 L 43.945312 87.203125 C 36.949219 91.164062 26.460938 96.019531 26.367188 105.351562 C 26.246094 117.402344 45.90625 127.355469 69.996094 127.441406 L 70.3125 127.441406 C 94.542969 127.441406 114.257812 117.582031 114.257812 105.46875 Z M 114.257812 105.46875 "/>
</g>
</svg>
